/* XPM */
static char *f0da3e705705432feddaad26ed101105SrrzxC4RY36PHkN3[] = {
/* columns rows colors chars-per-pixel */
"64 64 35 1 ",
"  c #ff2b52",
". c black",
"X c #010101",
"o c gray1",
"O c gray2",
"+ c #060606",
"@ c #070707",
"# c gray3",
"$ c gray4",
"% c #0C0C0C",
"& c gray5",
"* c gray7",
"= c #131313",
"- c #202020",
"; c gray13",
": c #222222",
"> c #232323",
", c #282828",
"< c gray17",
"1 c #2C2C2C",
"2 c #313131",
"3 c #3F3F3F",
"4 c #434343",
"5 c gray29",
"6 c #585858",
"7 c #5A5A5A",
"8 c gray47",
"9 c #797979",
"0 c #7C7C7C",
"q c gray50",
"w c #808080",
"e c #818181",
"r c gray52",
"t c gray53",
"y c #888888",
/* pixels */
"                                                                ",
"                                                                ",
"                                                                ",
"                                                                ",
"                                                                ",
"                                                                ",
"                                                                ",
"                                                                ",
"                                                                ",
"                                                                ",
"                                                                ",
"                                                                ",
"                                                                ",
"                                                                ",
"                                                                ",
"                                                                ",
"                                                                ",
"                                                                ",
"                                                                ",
"                                                                ",
"                                                                ",
"                                                                ",
"                                                                ",
"                                                                ",
"                                                                ",
"                                                                ",
"                                                                ",
"                                                                ",
"                                                                ",
"                                                                ",
"                                                                ",
"                                                                ",
"                                                                ",
"                                                                ",
"                                                                ",
"                                                                ",
"                                                                ",
"                                                                ",
"                                                                ",
"                                                                ",
"                                                                ",
"                                                                ",
"                                                                ",
"                                                                ",
"                                                                ",
"                                                                ",
"                                                                ",
"                                                                ",
"                                                                ",
"                                                                ",
"                                                                ",
"                                                                ",
"                                                                ",
"                                                                ",
"                                                                ",
"                                                                ",
"                                                                ",
"                                                                ",
"                   @ @ @ @            @ @ @ @                   ",
"                  @t*y;t1w4=&  &&  &*4w<t;t*y@                  ",
"                  @q*q;q<0385.;77;.5030,0;q*w@                  ",
"                  .@@#@&@#@##.;;,;.####@#@#@@.                  ",
"                   .<22222222&;76=#222222221.                   ",
"                    @...@.@..  ##  @..@.@.@.                    "
};
